<svg width="17" height="19" viewBox="0 0 17 19" fill="none" xmlns="http://www.w3.org/2000/svg">
<path d="M16.0889 15.4171C14.3212 15.3972 12.6073 14.8058 11.2035 13.7313C9.7996 12.6569 8.78106 11.157 8.30004 9.45587C7.81901 7.75472 7.90132 5.94358 8.53466 4.29307C9.168 2.64255 10.3184 1.24127 11.8139 0.298571C11.0582 0.102129 10.2808 0.00181327 9.5 0C6.98044 0 4.56408 1.00089 2.78248 2.78249C1.00089 4.56408 0 6.98044 0 9.5C0 12.0196 1.00089 14.4359 2.78248 16.2175C4.56408 17.9991 6.98044 19 9.5 19C10.9273 18.9987 12.3355 18.6716 13.6173 18.0437C14.8991 17.4157 16.0206 16.5035 16.8964 15.3764C16.6281 15.4037 16.3586 15.4173 16.0889 15.4171Z" fill="#131313"/>
</svg>
